PathFileType	4	(X/Y/Z)	E:\Qualisys_Data\Carbon_Farble_Plate\Data\Amateur_Runner\S14\T2\S14T2V22_c3d.trc
DataRate	CameraRate	NumFrames	NumMarkers	Units	OrigDataRate	OrigDataStartFrame	OrigNumFrames
200.000000	200.000000	5	39	mm	200.000000	158	316
Frame#	Time	LSHO			RSHO			LICST			RICST			LASIS			LHEEL			RASIS			LTROC			RTROC			SACR			LTH1			LSK4			LTH2			LTH3			RHM5			LSK2			LTH4			RTH1			LTOE			RTH2			RTH3			RTH4			LLEP			RLEP			LSK1			LSK3			RSK1			LHM5			RSK2			LFT1			RSK3			RSK4			LLME			RLME			RTOE			RHEEL			RFT1			RFT2			LFT2			
		X1	Y1	Z1	X2	Y2	Z2	X3	Y3	Z3	X4	Y4	Z4	X5	Y5	Z5	X6	Y6	Z6	X7	Y7	Z7	X8	Y8	Z8	X9	Y9	Z9	X10	Y10	Z10	X11	Y11	Z11	X12	Y12	Z12	X13	Y13	Z13	X14	Y14	Z14	X15	Y15	Z15	X16	Y16	Z16	X17	Y17	Z17	X18	Y18	Z18	X19	Y19	Z19	X20	Y20	Z20	X21	Y21	Z21	X22	Y22	Z22	X23	Y23	Z23	X24	Y24	Z24	X25	Y25	Z25	X26	Y26	Z26	X27	Y27	Z27	X28	Y28	Z28	X29	Y29	Z29	X30	Y30	Z30	X31	Y31	Z31	X32	Y32	Z32	X33	Y33	Z33	X34	Y34	Z34	X35	Y35	Z35	X36	Y36	Z36	X37	Y37	Z37	X38	Y38	Z38	X39	Y39	Z39	

159	0.79	-73.47795104980469	1471.090698242188	-465.637451171875	-158.4540710449219	1469.377685546875	-187.3289642333984	-153.5377197265625	1010.869445800781	-477.3869018554688	-135.0682983398438	1011.946533203125	-202.6346740722656	-118.5777435302734	956.7807006835938	-456.6549072265625	-742.82568359375	518.4700317382812	-342.5839538574219	-107.0890197753906	971.8484497070312	-225.5550231933594	-270.5396423339844	910.3135375976562	-497.8976135253906	-232.7882232666016	886.1661987304688	-164.5413513183594	-283.0072937011719	1015.27099609375	-344.3340759277344	-280.2716979980469	676.2395629882812	-498.279541015625	-582.1375732421875	537.7782592773438	-442.9126892089844	-351.3569641113281	702.1690673828125	-469.2099914550781	-306.7032775878906	580.9049682617188	-478.8145141601562	214.5447387695312	153.3199920654297	-162.0515899658203	-487.9625244140625	557.9278564453125	-469.1312866210938	-378.4024963378906	608.9424438476562	-454.4696044921875	-35.01405334472656	720.0744018554688	-174.1814880371094	-822.8139038085938	273.3482971191406	-376.8353881835938	-104.8580551147461	685.7913818359375	-157.3840637207031	8.197792053222656	633.5851440429688	-201.3493194580078	-64.5068588256836	594.9811401367188	-179.9422607421875	-380.2854614257812	539.9249877929688	-470.93212890625	-9.308621406555176	545.8953857421875	-185.7733001708984	-469.0860900878906	476.8863220214844	-464.7144165039062	-567.048583984375	457.6445922851562	-443.6852416992188	40.2665901184082	435.94189453125	-179.5214233398438	-833.4411010742188	347.7998962402344	-431.977294921875	-40.70477676391602	409.7822875976562	-187.8918762207031	-770.3455810546875	512.900390625	-317.9146423339844	66.73204803466797	335.98974609375	-190.1389007568359	-9.691293716430664	318.6573486328125	-197.4374389648438	-741.1942138671875	466.7249145507812	-412.0697021484375	81.71405029296875	154.9526824951172	-210.3119964599609	282.5724792480469	211.87548828125	-207.49755859375	51.90384292602539	104.1786041259766	-272.1255187988281	84.50308227539062	87.84510040283203	-297.3634948730469	62.77761840820312	77.45108795166016	-246.3528747558594	-778.0715942382812	526.8107299804688	-370.6334228515625
160	0.795	-52.59060287475586	1468.043212890625	-465.125244140625	-136.9074859619141	1465.516967773438	-186.3411407470703	-131.6758270263672	1008.345825195312	-477.0080871582031	-113.3864288330078	1009.001770019531	-202.2864837646484	-96.26754760742188	954.0325317382812	-456.4375915527344	-715.0914306640625	524.3129272460938	-343.2766723632812	-84.98082733154297	969.0119018554688	-225.3688812255859	-247.8839263916016	906.5433349609376	-498.2517700195312	-211.0738830566406	882.53515625	-164.4049530029297	-261.169677734375	1011.432067871094	-344.16259765625	-254.369873046875	671.216552734375	-497.9799499511719	-553.8228149414062	538.02685546875	-444.9058227539062	-326.2149658203125	696.4620971679688	-469.3627014160156	-278.6142883300781	575.4090576171875	-479.5297546386719	233.2629852294922	149.2802581787109	-164.4323120117188	-459.0235900878906	554.6185913085938	-470.8302917480469	-351.7986755371094	602.8911743164062	-454.8559265136719	-13.80097961425781	716.1738891601562	-173.8530426025391	-799.4554443359375	280.8727111816406	-374.8364562988281	-83.92028045654297	682.1608276367188	-157.8936004638672	28.83891868591309	629.7117919921875	-202.1671447753906	-44.3403205871582	591.3224487304688	-180.6000671386719	-352.1974487304688	534.4681396484375	-472.1056518554688	10.73596858978271	542.287353515625	-186.5427093505859	-442.4321899414062	473.5347900390625	-464.97021484375	-540.8734130859375	457.4332580566406	-443.1925659179688	60.47058868408203	431.580078125	-181.0636901855469	-809.0974731445312	355.0103454589844	-430.7593994140625	-20.67894554138184	405.7231750488281	-189.2772521972656	-742.439208984375	519.647705078125	-318.7492980957031	86.47315979003906	331.5494995117188	-191.6896362304688	10.20852661132812	314.5583190917969	-198.5057373046875	-714.190185546875	472.0622253417969	-411.8812255859375	100.5784301757812	150.4447631835938	-212.2271118164062	301.0066223144531	207.497314453125	-210.1945495605469	70.61150360107422	99.74940490722656	-273.9882507324219	103.0645751953125	83.49746704101562	-299.2814636230469	81.77025604248047	73.38677978515625	-247.8462219238281	-749.8824462890625	533.4686279296875	-370.7026062011719
161	0.8	-31.93111991882324	1464.644409179688	-464.7527770996094	-115.1771850585938	1461.8896484375	-185.645263671875	-110.0454330444336	1005.108276367188	-476.6816711425781	-92.07791137695312	1005.95849609375	-201.4790496826172	-74.34083557128906	951.0693359375	-455.8734130859375	-686.1904907226562	530.153076171875	-343.3838195800781	-63.51599502563477	966.0037841796876	-224.6619110107422	-225.4112854003906	902.127685546875	-498.6108703613281	-189.6156158447266	879.1170043945312	-164.2942504882812	-239.5256042480469	1007.520874023438	-344.0252380371094	-228.7244415283203	666.7640380859375	-498.7518005371094	-524.5679931640625	537.7343139648438	-446.1726379394531	-300.9987182617188	690.4157104492188	-469.8682250976562	-251.4544067382812	570.1603393554688	-480.2962951660156	251.6492156982422	144.4712524414062	-166.9109649658203	-429.917724609375	551.36962890625	-472.6601257324219	-325.0700073242188	596.58740234375	-455.296875	7.924678325653076	712.3159790039062	-173.6304779052734	-775.206298828125	287.9041748046875	-372.9833068847656	-62.77924346923828	679.0512084960938	-158.7010955810547	49.83005142211914	625.1655883789062	-202.4907989501953	-24.03366851806641	587.8623046875	-181.6482849121094	-324.1626281738281	530.3985595703125	-473.659423828125	30.76542472839355	538.0430297851562	-187.6548309326172	-415.2630615234375	469.8021545410156	-465.5137023925781	-514.0316772460938	456.5755310058594	-442.9222106933594	80.29676055908203	427.1530151367188	-182.2518005371094	-783.71337890625	362.2253723144531	-429.0593872070312	-0.9382889270782472	401.6412353515625	-190.1393737792969	-713.9620971679688	525.9453735351562	-318.6954345703125	105.6373519897461	326.8771667480469	-193.645263671875	29.02486991882324	310.3171997070312	-199.6466979980469	-686.5338134765625	477.2804260253906	-411.574462890625	118.6780624389648	145.5992736816406	-213.9967498779297	319.2605285644531	202.8759307861328	-213.3197479248047	88.09603118896484	94.82989501953124	-276.2847290039062	120.2630996704102	78.68282318115234	-301.4082336425781	99.01101684570312	68.4618148803711	-250.1182250976562	-721.341552734375	539.8464965820312	-370.9163818359375
162	0.805	-11.24642658233643	1460.882080078125	-464.3865051269531	-93.76470947265624	1457.623901367188	-184.6885223388672	-88.08792114257812	1001.628845214844	-476.4845886230469	-70.51190185546875	1002.49658203125	-201.4783477783203	-52.34926605224609	947.7545776367188	-455.1494445800781	-656.8003540039062	536.0685424804688	-342.5564575195312	-41.86211395263672	963.054443359375	-224.3895874023438	-202.7922973632812	897.8722534179688	-498.8080139160156	-167.9091949462891	875.4286499023438	-164.1160888671875	-218.0781707763672	1003.817993164062	-344.2006530761719	-202.9112701416016	661.4204711914062	-498.7077331542969	-495.6138610839844	536.66796875	-447.2632141113281	-276.113037109375	683.9678344726562	-470.1058044433594	-224.1152954101562	564.683349609375	-480.6805114746094	268.4266662597656	139.0147094726562	-169.9530487060547	-400.1693420410156	547.5924682617188	-474.6495971679688	-298.2575073242188	589.6701049804688	-456.1040344238281	30.05277252197266	708.1856079101562	-173.5093536376953	-749.9454956054688	294.2406616210938	-370.8685302734375	-41.28010177612305	675.7586669921875	-159.6113128662109	70.74175262451172	620.9336547851562	-202.8983306884766	-3.03280782699585	584.381103515625	-182.4020233154297	-294.9776916503906	522.8984375	-473.730224609375	50.67104339599609	533.5966186523438	-188.6954803466797	-387.8248901367188	465.9993896484375	-465.8517761230469	-486.8952941894531	455.7646179199219	-442.5966186523438	100.6671142578125	422.3460388183594	-183.6540069580078	-757.3744506835938	368.5441284179688	-427.90087890625	18.63522720336914	397.7442016601562	-190.7920989990234	-684.3507690429688	532.1969604492188	-317.7442016601562	124.990966796875	321.8130187988281	-195.6432800292969	47.62468719482422	305.9895324707031	-201.267578125	-658.4212036132812	481.8721923828125	-411.0299377441406	135.6490936279297	140.4943237304688	-216.5088500976562	335.9973449707031	197.2004547119141	-215.8005065917969	103.956787109375	89.98739624023438	-278.0058288574219	136.4287719726562	73.77864837646484	-303.677490234375	115.4455871582031	63.56594085693359	-252.405029296875	-691.8673706054688	545.6686401367188	-370.9391479492188
163	0.81	9.344691276550291	1456.940063476562	-464.0722351074219	-71.9230728149414	1453.156860351562	-183.6636657714844	-66.54386901855469	997.9173583984376	-476.1130981445312	-48.64854049682617	999.2304077148438	-200.9869842529297	-30.51137924194336	944.3238525390624	-454.9058227539062	-626.901123046875	540.9099731445312	-342.6828308105469	-20.22351264953613	959.46435546875	-223.8399200439453	-180.2694244384766	893.2720336914062	-499.33935546875	-146.3983764648438	872.3037719726562	-164.1277160644531	-196.0922393798828	999.7922973632812	-344.1692199707031	-176.8891906738281	656.1156616210938	-499.0797424316406	-465.6441345214844	535.3932495117188	-447.9505310058594	-249.0463714599609	677.4146728515625	-470.7370910644531	-196.5497741699219	558.7659912109375	-481.5260314941406	284.2384643554688	132.5700225830078	-172.888427734375	-370.3685913085938	543.9420166015625	-475.900146484375	-271.1991882324219	582.5703735351562	-456.5937194824219	52.42372894287109	704.1552734375	-173.4174957275391	-723.5383911132812	300.4328002929688	-370.0022583007812	-19.49588775634766	672.4740600585938	-160.6375885009766	92.04795837402344	616.1109619140625	-203.2217254638672	17.52931022644043	580.349365234375	-182.9739227294922	-265.9555969238281	516.9728393554688	-475.5047302246094	71.50223541259766	529.4188842773438	-189.6009674072266	-359.7533264160156	461.8581848144531	-466.500732421875	-459.1987915039062	454.3524780273438	-442.5393676757812	120.2168884277344	417.5138549804688	-185.0870056152344	-729.803955078125	374.7854919433594	-427.28515625	37.96296691894531	393.6867980957031	-191.5302886962891	-654.799560546875	537.382080078125	-317.9821472167969	143.1933288574219	316.6316528320312	-197.3753051757812	65.73770141601562	301.5166320800781	-202.0486602783203	-629.255859375	486.1732788085938	-410.7723083496094	151.3980102539062	135.4260406494141	-218.6452178955078	351.9540100097656	190.6639709472656	-219.4803466796875	119.0059051513672	85.0184555053711	-279.9956665039062	151.1966400146484	68.43769073486328	-306.131591796875	130.3903503417969	58.03835296630859	-254.4527130126953	-662.0585327148438	550.8128051757812	-371.0120849609375
